<?xml version="1.0" encoding="UTF-8" standalone="no"?>
<!-- Generator: Adobe Illustrator 25.0.1, SVG Export Plug-In . SVG Version: 6.00 Build 0)  -->

<svg
   version="1.1"
   id="svg8"
   x="0px"
   y="0px"
   width="125px"
   height="125px"
   viewBox="0 0 125 125"
   style="enable-background:new 0 0 125 125;"
   xml:space="preserve"
   xmlns="http://www.w3.org/2000/svg"
   xmlns:svg="http://www.w3.org/2000/svg"><defs
   id="defs1558" />
<style
   type="text/css"
   id="style1545">
	.st0{fill-rule:evenodd;clip-rule:evenodd;fill:#FEFEFE;}
	.st1{fill:#FEFEFE;}
	.st2{fill-rule:evenodd;clip-rule:evenodd;fill:#3174C1;}
</style>
<g
   id="Laag_x0020_1"
   transform="matrix(0.04584043,0,0,0.04584043,0.01504095,-1.9033016)"
   style="fill:#2a7fff">
	<g
   id="_855722064"
   style="fill:#2a7fff">
		<g
   id="ellipse7"
   style="fill:#2a7fff">
			<path
   class="st0"
   d="m 1349.3,2085.9 c -401.9,0 -728.9,-326.9 -728.9,-728.9 0.1,-401.8 327.1,-728.8 728.9,-728.8 401.9,0 728.8,327 728.8,728.9 0.1,401.9 -326.9,728.8 -728.8,728.8 z"
   id="path1547"
   style="fill:#2a7fff" />
			<path
   class="st1"
   d="m 1349.3,641.4 c 394.6,0 715.7,321 715.7,715.7 0,394.7 -321,715.7 -715.7,715.7 -394.7,0 -715.7,-321 -715.7,-715.7 0,-394.7 321.1,-715.7 715.7,-715.7 m 0,-26.4 c -409.8,0 -742,332.2 -742,742.1 0,409.9 332.2,742.1 742.1,742.1 409.9,0 742.1,-332.2 742.1,-742.1 0,-409.9 -332.3,-742.1 -742.2,-742.1 z"
   id="path1549"
   style="fill:#2a7fff" />
		</g>
		<path
   id="path9"
   class="st2"
   d="m 1349.3,984.1 c 92.1,0 108.3,-23.7 157.9,-43.5 29.4,10.9 56.7,24.7 82,40.6 -47.6,26.7 -108.3,91 -239.9,91 -131.6,0 -192.3,-64.3 -239.9,-91 25.3,-15.8 52.6,-29.7 82,-40.6 49.6,19.7 65.8,43.5 157.9,43.5 z m 0,329.4 c 200.4,0 254.1,-126.6 379.6,-190 -13.2,-20.8 -26.3,-39.6 -42.5,-57.4 -87.1,55.4 -162,156.3 -337.1,156.3 -175.1,0 -250,-100.8 -337.1,-156.2 -16.2,17.8 -29.4,36.6 -41.5,56.4 124.5,64.3 178.2,190.9 378.6,190.9 z m -432.2,-63.3 c 163,39.6 178.2,207.8 432.3,207.8 254.1,0 269.3,-168.2 432.3,-207.8 7.1,28.7 11.1,58.4 12.1,89 -135.7,35.7 -235.9,217.7 -444.5,222.7 -208.5,-4.9 -308.8,-187 -444.4,-223.6 1,-29.7 5.1,-59.4 12.2,-88.1 z m 432.2,552.1 c 200.4,0 370.5,-133.6 426.2,-315.6 -227.7,99.9 -190.3,214.7 -426.2,214.7 -235.9,0 -198.4,-114.8 -426.2,-214.7 55.7,182 225.8,315.6 426.2,315.6 z m 0,-1076.5 c 348.2,0 630.7,282 630.7,631.2 0,348.3 -282.4,630.3 -630.7,630.3 -348.3,0 -630.7,-282 -630.7,-630.3 0,-349.2 282.5,-631.2 630.7,-631.2 z"
   style="fill:#2a7fff" />
	</g>
</g>
<text
   xml:space="preserve"
   style="font-weight:bold;font-size:60.995px;font-family:Arial;-inkscape-font-specification:'Arial Bold';fill:#ffffff;fill-opacity:1;stroke-width:0.953048"
   x="35.941963"
   y="82.249214"
   id="text1668"
   transform="scale(1.0046379,0.99538352)"><tspan
     id="tspan1666"
     x="35.941963"
     y="82.249214"
     style="fill:#ffffff;fill-opacity:1;stroke-width:0.953048">M</tspan></text></svg>
