<?xml version="1.0" encoding="UTF-8" standalone="no"?>
<!-- Created with Inkscape (http://www.inkscape.org/) -->

<svg
   width="39.418335mm"
   height="18.001297mm"
   viewBox="0 0 39.418335 18.001297"
   version="1.1"
   id="svg5"
   xml:space="preserve"
   inkscape:export-filename="bitmap.svg"
   inkscape:export-xdpi="96"
   inkscape:export-ydpi="96"
   xmlns:inkscape="http://www.inkscape.org/namespaces/inkscape"
   xmlns:sodipodi="http://sodipodi.sourceforge.net/DTD/sodipodi-0.dtd"
   xmlns="http://www.w3.org/2000/svg"
   xmlns:svg="http://www.w3.org/2000/svg"><sodipodi:namedview
     id="namedview7"
     pagecolor="#ffffff"
     bordercolor="#000000"
     borderopacity="0.25"
     inkscape:showpageshadow="2"
     inkscape:pageopacity="0.0"
     inkscape:pagecheckerboard="0"
     inkscape:deskcolor="#d1d1d1"
     inkscape:document-units="mm"
     showgrid="false" /><defs
     id="defs2"><clipPath
       id="clipPath18-0"><path
         d="M 0,0 H 566.93 V 246 H 0 Z"
         id="path94" /></clipPath></defs><g
     inkscape:label="Laag 1"
     inkscape:groupmode="layer"
     id="layer1"
     transform="translate(-97.413882,-134.46252)"><g
       transform="matrix(0.28985104,0,0,0.37335354,79.689201,121.01861)"
       id="g123"><g
         transform="matrix(1.25,0,0,-1.25,61.151,72.7)"
         id="g111"><path
           transform="matrix(0.8,0,0,-0.8,0,24.65)"
           d="m 1.896,2.6097 62.331,0.237 4.503,5.688 0.237,14.931 -3.792,3.792 -63.042,0.237 z"
           fill="#ffffff"
           id="path101" /><g
           transform="scale(0.1)"
           id="g109"><g
             clip-path="url(#clipPath18-0)"
             fill="#ed1c24"
             id="g107"><path
               d="m 448.73,214.98 v -12.165 c 0,0 52.325,-0.019 61.094,-0.019 21.543,-16.305 25.567,-27.145 25.567,-32.164 l 0.039,-94.711 c 0,-7.9805 -10.45,-20.332 -25.879,-32.16 h -60.703 c 0,0 0,-7.957 -0.039,-12.188 H 400.586 V 43.721 H 133.436 V 31.494 H 84.111 c 0,4.2695 -0.0078,12.207 -0.0078,12.207 0,0 -37.086,-0.039 -52.535,-0.039 -0.0078,24.113 -0.0469,134.92 -0.0586,159.04 15.461,0.012 52.566,0.02 52.566,0.02 v 12.187 h 49.321 v -12.176 l 267.15,0.028 v 12.207 c 15.312,0 32.91,0.012 48.183,0.012 z m 15.762,31.496 -95.43,-0.02 v -12.207 c -25.449,0 -178.71,-0.008 -204.18,-0.019 v 12.168 H 52.582 V 234.21 C 37.125,234.202 0,234.191 0,234.191 L 0.078125,12.131 c 0,0 37.105,0.0391 52.555,0.0391 0,-4.2461 0.0078,-12.168 0.0078,-12.168 H 164.93092 v 12.227 h 204.18 V 0.0811 h 111.11001 c 0,0 0.039,7.957 0.039,12.187 h 40.234 l 4.102,2.9375 c 19.316,13.789 42.305,35.527 42.34401,60.676 l -0.039,94.75 c 0,20.543 -13.848,40.41 -42.42201,60.734 l -4.06299,2.922 c 0,0 -25.15601,0.012 -40.195,0.02 v 12.179 l -15.72301,-0.011"
               id="path103" /><path
               d="m 462.62,62.422 32.285,1.7656 c 0,0 6.114,33.957 6.075,59.918 0,25.899 -6.114,58.52 -6.114,58.52 l -32.285,2.691 0.039,-122.89"
               id="path105" /></g></g></g><text
         style="font-weight:700;font-size:115.846px;line-height:177.295px;font-family:Arial, sans-serif;text-anchor:middle;white-space:pre;fill:#333333"
         transform="matrix(0.181231,0,0,0.140698,91.654716,63.150387)"
         id="text113">GWV</text><text
         style="font-size:28px;font-family:Arial, sans-serif;text-anchor:middle;white-space:pre;fill:#333333"
         transform="matrix(0.181231,0,0,0.140698,154.86815,63.037827)"
         id="text115" /><text
         style="font-size:28px;font-family:Arial, sans-serif;white-space:pre;fill:#333333"
         transform="matrix(0.181231,0,0,0.140698,156.75294,66.076897)"
         id="text117" /><text
         style="font-size:28px;font-family:Arial, sans-serif;white-space:pre;fill:#333333"
         transform="matrix(0.181231,0,0,0.140698,185.60495,48.292686)"
         id="text119" /><text
         style="font-size:28px;font-family:Arial, sans-serif;white-space:pre;fill:#333333"
         transform="matrix(0.181231,0,0,0.140698,205.03293,40.751289)"
         id="text121" /></g><g
       id="Laag_x0020_1"
       transform="matrix(0.01212861,0,0,0.01212861,111.46523,127.00342)">
	<g
   id="_855722064">
		<g
   id="ellipse7">
			<path
   class="st0"
   d="m 1349.3,2085.9 c -401.9,0 -728.9,-326.9 -728.9,-728.9 0.1,-401.8 327.1,-728.8 728.9,-728.8 401.9,0 728.8,327 728.8,728.9 0.1,401.9 -326.9,728.8 -728.8,728.8 z"
   id="path161" />
			<path
   class="st1"
   d="m 1349.3,641.4 c 394.6,0 715.7,321 715.7,715.7 0,394.7 -321,715.7 -715.7,715.7 -394.7,0 -715.7,-321 -715.7,-715.7 0,-394.7 321.1,-715.7 715.7,-715.7 m 0,-26.4 c -409.8,0 -742,332.2 -742,742.1 0,409.9 332.2,742.1 742.1,742.1 409.9,0 742.1,-332.2 742.1,-742.1 0,-409.9 -332.3,-742.1 -742.2,-742.1 z"
   id="path163" />
		</g>
		<path
   id="path9"
   inkscape:connector-curvature="0"
   class="st2"
   d="m 1349.3,984.1 c 92.1,0 108.3,-23.7 157.9,-43.5 29.4,10.9 56.7,24.7 82,40.6 -47.6,26.7 -108.3,91 -239.9,91 -131.6,0 -192.3,-64.3 -239.9,-91 25.3,-15.8 52.6,-29.7 82,-40.6 49.6,19.7 65.8,43.5 157.9,43.5 z m 0,329.4 c 200.4,0 254.1,-126.6 379.6,-190 -13.2,-20.8 -26.3,-39.6 -42.5,-57.4 -87.1,55.4 -162,156.3 -337.1,156.3 -175.1,0 -250,-100.8 -337.1,-156.2 -16.2,17.8 -29.4,36.6 -41.5,56.4 124.5,64.3 178.2,190.9 378.6,190.9 z m -432.2,-63.3 c 163,39.6 178.2,207.8 432.3,207.8 254.1,0 269.3,-168.2 432.3,-207.8 7.1,28.7 11.1,58.4 12.1,89 -135.7,35.7 -235.9,217.7 -444.5,222.7 -208.5,-4.9 -308.8,-187 -444.4,-223.6 1,-29.7 5.1,-59.4 12.2,-88.1 z m 432.2,552.1 c 200.4,0 370.5,-133.6 426.2,-315.6 -227.7,99.9 -190.3,214.7 -426.2,214.7 -235.9,0 -198.4,-114.8 -426.2,-214.7 55.7,182 225.8,315.6 426.2,315.6 z m 0,-1076.5 c 348.2,0 630.7,282 630.7,631.2 0,348.3 -282.4,630.3 -630.7,630.3 -348.3,0 -630.7,-282 -630.7,-630.3 0,-349.2 282.5,-631.2 630.7,-631.2 z" />
	</g>
</g></g><style
     type="text/css"
     id="style99">
	.st0{fill:#FFEB1D;}
</style><style
     type="text/css"
     id="style159">
	.st0{fill-rule:evenodd;clip-rule:evenodd;fill:#FEFEFE;}
	.st1{fill:#FEFEFE;}
	.st2{fill-rule:evenodd;clip-rule:evenodd;fill:#3174C1;}
</style></svg>
