<?xml version="1.0" encoding="UTF-8" standalone="no"?>
<svg
   width="77.633972"
   height="43.390957"
   version="1.1"
   viewBox="0 0 77.633972 43.390957"
   id="svg33"
   sodipodi:docname="gwv.svg"
   inkscape:export-filename="svg_new.svg"
   inkscape:export-xdpi="96"
   inkscape:export-ydpi="96"
   xmlns:inkscape="http://www.inkscape.org/namespaces/inkscape"
   xmlns:sodipodi="http://sodipodi.sourceforge.net/DTD/sodipodi-0.dtd"
   xmlns="http://www.w3.org/2000/svg"
   xmlns:svg="http://www.w3.org/2000/svg">
  <sodipodi:namedview
     id="namedview35"
     pagecolor="#ffffff"
     bordercolor="#000000"
     borderopacity="0.25"
     inkscape:showpageshadow="2"
     inkscape:pageopacity="0.0"
     inkscape:pagecheckerboard="0"
     inkscape:deskcolor="#d1d1d1"
     showgrid="false" />
  <defs
     id="defs5">
    <clipPath
       id="clipPath18-0">
      <path
         d="M 0,0 H 566.93 V 246 H 0 Z"
         id="path2" />
    </clipPath>
  </defs>
  <style
     type="text/css"
     id="style7">
	.st0{fill:#FFEB1D;}
</style>
  <g
     transform="matrix(1.0955,0,0,1.4111,-66.99092,-59.195646)"
     id="g31">
    <g
       transform="matrix(1.25,0,0,-1.25,61.151,72.7)"
       id="g19">
      <path
         transform="matrix(0.8,0,0,-0.8,0,24.65)"
         d="m 1.896,2.6097 62.331,0.237 4.503,5.688 0.237,14.931 -3.792,3.792 -63.042,0.237 z"
         fill="#ffffff"
         id="path9" />
      <g
         transform="scale(0.1)"
         id="g17">
        <g
           clip-path="url(#clipPath18-0)"
           fill="#ed1c24"
           id="g15">
          <path
             d="m 448.73,214.98 v -12.165 c 0,0 52.325,-0.019 61.094,-0.019 21.543,-16.305 25.567,-27.145 25.567,-32.164 l 0.039,-94.711 c 0,-7.9805 -10.45,-20.332 -25.879,-32.16 h -60.703 c 0,0 0,-7.957 -0.039,-12.188 H 400.586 V 43.721 H 133.436 V 31.494 H 84.111 c 0,4.2695 -0.0078,12.207 -0.0078,12.207 0,0 -37.086,-0.039 -52.535,-0.039 -0.0078,24.113 -0.0469,134.92 -0.0586,159.04 15.461,0.012 52.566,0.02 52.566,0.02 v 12.187 h 49.321 v -12.176 l 267.15,0.028 v 12.207 c 15.312,0 32.91,0.012 48.183,0.012 z m 15.762,31.496 -95.43,-0.02 v -12.207 c -25.449,0 -178.71,-0.008 -204.18,-0.019 v 12.168 H 52.582 V 234.21 C 37.125,234.202 0,234.191 0,234.191 L 0.078125,12.131 c 0,0 37.105,0.0391 52.555,0.0391 0,-4.2461 0.0078,-12.168 0.0078,-12.168 H 164.93092 v 12.227 h 204.18 V 0.0811 h 111.11001 c 0,0 0.039,7.957 0.039,12.187 h 40.234 l 4.102,2.9375 c 19.316,13.789 42.305,35.527 42.34401,60.676 l -0.039,94.75 c 0,20.543 -13.848,40.41 -42.42201,60.734 l -4.06299,2.922 c 0,0 -25.15601,0.012 -40.195,0.02 v 12.179 l -15.72301,-0.011"
             id="path11" />
          <path
             d="m 462.62,62.422 32.285,1.7656 c 0,0 6.114,33.957 6.075,59.918 0,25.899 -6.114,58.52 -6.114,58.52 l -32.285,2.691 0.039,-122.89"
             id="path13" />
        </g>
      </g>
    </g>
    <text
       style="font-weight:700;font-size:115.846px;line-height:177.295px;font-family:Arial, sans-serif;text-anchor:middle;white-space:pre;fill:#333333"
       transform="matrix(0.181231,0,0,0.140698,91.654716,63.150387)"
       id="text21">GWV</text>
    <text
       style="font-size:28px;font-family:Arial, sans-serif;text-anchor:middle;white-space:pre;fill:#333333"
       transform="matrix(0.181231,0,0,0.140698,154.86815,63.037827)"
       id="text23" />
    <text
       style="font-size:28px;font-family:Arial, sans-serif;white-space:pre;fill:#333333"
       transform="matrix(0.181231,0,0,0.140698,156.75294,66.076897)"
       id="text25" />
    <text
       style="font-size:28px;font-family:Arial, sans-serif;white-space:pre;fill:#333333"
       transform="matrix(0.181231,0,0,0.140698,185.60495,48.292686)"
       id="text27" />
    <text
       style="font-size:28px;font-family:Arial, sans-serif;white-space:pre;fill:#333333"
       transform="matrix(0.181231,0,0,0.140698,205.03293,40.751289)"
       id="text29" />
  </g>
</svg>
