<?xml version="1.0" encoding="utf-8"?>
<svg width="125" height="125" version="1.1" viewBox="0 0 125 125" xmlns="http://www.w3.org/2000/svg">
  <defs>
    <clipPath id="clipPath18-0">
      <path d="m0 0h566.93v246h-566.93z"/>
    </clipPath>
  </defs>
  <style type="text/css">
	.st0{fill:#FFEB1D;}
</style>
  <g transform="matrix(1.0955 0 0 1.4111 -43.308 -18.392)">
    <g transform="matrix(1.25 0 0 -1.25 61.151 72.7)">
      <path transform="matrix(.8 0 0 -.8 0 24.65)" d="m1.896 2.6097 62.331 0.237 4.503 5.688 0.237 14.931-3.792 3.792-63.042 0.237z" fill="#fff"/>
      <g transform="scale(.1)">
        <g clip-path="url(#clipPath18-0)" fill="#ed1c24">
          <path d="m448.73 214.98v-12.165s52.325-0.019 61.094-0.019c21.543-16.305 25.567-27.145 25.567-32.164l0.039-94.711c0-7.9805-10.45-20.332-25.879-32.16h-60.703s0-7.957-0.039-12.188h-48.223v12.148h-267.15v-12.227h-49.325c0 4.2695-0.0078 12.207-0.0078 12.207s-37.086-0.039-52.535-0.039c-0.0078 24.113-0.0469 134.92-0.0586 159.04 15.461 0.012 52.566 0.02 52.566 0.02v12.187h49.321v-12.176l267.15 0.028v12.207c15.312 0 32.91 0.012 48.183 0.012zm15.762 31.496-95.43-0.02v-12.207c-25.449 0-178.71-8e-3 -204.18-0.019v12.168h-112.3v-12.188c-15.457-8e-3 -52.582-0.019-52.582-0.019l0.078125-222.06s37.105 0.0391 52.555 0.0391c0-4.2461 0.0078-12.168 0.0078-12.168h112.29v12.227h204.18v-12.148h111.11s0.039 7.957 0.039 12.187h40.234l4.102 2.9375c19.316 13.789 42.305 35.527 42.344 60.676l-0.039 94.75c0 20.543-13.848 40.41-42.422 60.734l-4.063 2.922s-25.156 0.012-40.195 0.02v12.179l-15.723-0.011"/>
          <path d="m462.62 62.422 32.285 1.7656s6.114 33.957 6.075 59.918c0 25.899-6.114 58.52-6.114 58.52l-32.285 2.691 0.039-122.89"/>
        </g>
      </g>
    </g>
    <text style="fill: rgb(51, 51, 51); font-family: Arial, sans-serif; font-size: 115.846px; font-weight: 700; line-height: 177.295px; text-anchor: middle; white-space: pre;" transform="matrix(0.181231, 0, 0, 0.140698, 91.654716, 63.150387)">GWV</text>
    <text style="white-space: pre; fill: rgb(51, 51, 51); font-family: Arial, sans-serif; font-size: 28px; text-anchor: middle;" transform="matrix(0.181231, 0, 0, 0.140698, 154.868149, 63.037827)"> </text>
    <text style="white-space: pre; fill: rgb(51, 51, 51); font-family: Arial, sans-serif; font-size: 28px;" transform="matrix(0.181231, 0, 0, 0.140698, 156.752945, 66.076897)"> </text>
    <text style="white-space: pre; fill: rgb(51, 51, 51); font-family: Arial, sans-serif; font-size: 28px;" transform="matrix(0.181231, 0, 0, 0.140698, 185.60495, 48.292686)"> </text>
    <text style="white-space: pre; fill: rgb(51, 51, 51); font-family: Arial, sans-serif; font-size: 28px;" transform="matrix(0.181231, 0, 0, 0.140698, 205.032928, 40.751289)"> </text>
  </g>
</svg>
