<?xml version="1.0" encoding="UTF-8" standalone="no"?>
<!-- Created with Inkscape (http://www.inkscape.org/) -->

<svg
   width="163.05643mm"
   height="224.9299mm"
   viewBox="0 0 163.05643 224.9299"
   version="1.1"
   id="svg5"
   xml:space="preserve"
   inkscape:export-filename="pasen.svg"
   inkscape:export-xdpi="96"
   inkscape:export-ydpi="96"
   xmlns:inkscape="http://www.inkscape.org/namespaces/inkscape"
   xmlns:sodipodi="http://sodipodi.sourceforge.net/DTD/sodipodi-0.dtd"
   xmlns="http://www.w3.org/2000/svg"
   xmlns:svg="http://www.w3.org/2000/svg"><sodipodi:namedview
     id="namedview7"
     pagecolor="#ffffff"
     bordercolor="#000000"
     borderopacity="0.25"
     inkscape:showpageshadow="2"
     inkscape:pageopacity="0.0"
     inkscape:pagecheckerboard="0"
     inkscape:deskcolor="#d1d1d1"
     inkscape:document-units="mm"
     showgrid="false" /><defs
     id="defs2" /><g
     inkscape:label="Laag 1"
     inkscape:groupmode="layer"
     id="layer1"
     transform="translate(-7.4979832,-47.393969)"><g
       id="g80"
       transform="matrix(0.13389297,0,0,0.14082976,3.5587933,41.552689)"
       style="fill:#ff0000">
	
		<radialGradient
   id="SVGID_1_"
   cx="636.39648"
   cy="840.06561"
   r="716.63348"
   gradientTransform="matrix(0.9758,0,0,1,17.3306,0)"
   gradientUnits="userSpaceOnUse">
		<stop
   offset="0"
   style="stop-color:#E5E2DF"
   id="stop48" />
		<stop
   offset="0"
   style="stop-color:#F1EFEE"
   id="stop50" />
		<stop
   offset="0"
   style="stop-color:#FFFFFF"
   id="stop52" />
		<stop
   offset="0.1259"
   style="stop-color:#F0F0F1"
   id="stop54" />
		<stop
   offset="0.3664"
   style="stop-color:#C9CACB"
   id="stop56" />
		<stop
   offset="0.5225"
   style="stop-color:#ADAEB0"
   id="stop58" />
		<stop
   offset="0.6029"
   style="stop-color:#A3A5A7"
   id="stop60" />
		<stop
   offset="0.7382"
   style="stop-color:#898D90"
   id="stop62" />
		<stop
   offset="0.9108"
   style="stop-color:#5F6769"
   id="stop64" />
		<stop
   offset="1"
   style="stop-color:#465053"
   id="stop66" />
	</radialGradient>
	<path
   fill="url(#SVGID_1_)"
   d="m 638.3279,41.4776 c -293.1773,0 -620.2347,425.4311 -608.6061,872.1713 11.2001,430.3124 282.8846,725.0048 608.6061,725.0048 325.7179,0 597.3976,-294.6924 608.6024,-725.0048 C 1258.5682,466.9086 931.5145,41.4776 638.3279,41.4776 Z"
   id="path69"
   style="fill:#ff0000" />
	
		<radialGradient
   id="SVGID_2_"
   cx="636.39648"
   cy="649.38989"
   r="779.04413"
   gradientTransform="matrix(0,-1,0.8134,0,110.1268,1285.7864)"
   gradientUnits="userSpaceOnUse">
		<stop
   offset="0"
   style="stop-color:#FFFFFF;stop-opacity:0.7"
   id="stop71" />
		<stop
   offset="1"
   style="stop-color:#FFFFFF;stop-opacity:0"
   id="stop73" />
	</radialGradient>
	<path
   fill="url(#SVGID_2_)"
   d="m 638.3279,41.4776 c -293.1773,0 -620.2347,425.4311 -608.6061,872.1713 11.2001,430.3124 282.8846,725.0048 608.6061,725.0048 325.7179,0 597.3976,-294.6924 608.6024,-725.0048 C 1258.5682,466.9086 931.5145,41.4776 638.3279,41.4776 Z"
   id="path76"
   style="fill:#ff0000" />
	<path
   display="none"
   fill="#bb805e"
   d="m 1246.9303,913.6488 c 0,0 -0.019,-9.0485 -0.045,-26.0269 0.063,-8.4804 0,-18.9626 -0.7843,-31.2408 -0.6318,-12.292 -1.0106,-26.4288 -2.7612,-42.1748 -2.2734,-31.602 -8.11,-69.6954 -16.7076,-112.9077 -8.7954,-43.2169 -22.2921,-91.2115 -40.6774,-142.2455 C 1167.3884,508.1272 1143.5094,454.1843 1112.5116,400.317 1081.5054,346.5274 1044.562,291.9793 999.2935,241.5406 977.0015,216.0415 952.4,191.8462 926.0664,169.0716 899.8406,146.1572 871.4053,125.1148 840.9489,106.8961 780.4877,70.4402 710.5354,44.1796 638.3281,44.3015 566.1079,44.2017 496.187,70.4402 435.7258,106.9096 c -30.4611,18.2142 -58.9102,39.2566 -85.1302,62.171 -26.329,22.7655 -50.9351,46.9699 -73.2225,72.4689 C 232.099,291.9793 195.1566,346.5449 164.1458,400.317 133.148,454.1935 109.2772,508.1272 90.7025,559.0669 72.321,610.087 58.834,658.0946 50.0291,701.2985 c -8.6019,43.2122 -14.4388,81.3057 -16.7212,112.9077 -1.7501,15.746 -2.1155,29.8828 -2.756,42.1748 -0.7714,12.2874 -0.8525,22.7604 -0.7758,31.2408 -0.0361,16.9784 -0.0541,26.0269 -0.0541,26.0269 0,0 -0.0722,-9.0485 -0.194,-26.0269 -0.1488,-8.4804 -0.1804,-18.9626 0.4782,-31.2593 0.5232,-12.291 0.7578,-26.4592 2.3591,-42.2468 1.9802,-31.6519 7.4562,-69.835 15.6566,-113.2236 8.3809,-43.384 21.4349,-91.6752 39.8252,-142.8672 18.4527,-51.1512 42.2247,-105.3335 73.1495,-159.4982 30.948,-54.0695 67.846,-108.9603 113.183,-159.8099 22.3142,-25.693 46.9748,-50.1184 73.3934,-73.1274 26.3198,-23.1444 54.9093,-44.4485 85.5773,-62.9198 60.876,-36.9739 131.5997,-63.908 205.1779,-64.0161 73.5883,0.1358 144.2797,27.0422 205.1741,64.0251 30.6727,18.4758 59.2529,39.7753 85.5588,62.9197 26.4417,23.0091 51.0884,47.4255 73.4165,73.1185 45.3323,50.8496 82.2386,105.7403 113.182,159.8099 30.9258,54.1647 54.6885,108.3469 73.1552,159.4982 18.376,51.192 31.4302,99.4832 39.8108,142.8672 8.219,43.3887 13.6859,81.5718 15.662,113.2236 1.5963,15.7876 1.8309,29.9558 2.363,42.2468 0.6494,12.3058 0.6318,22.7789 0.4785,31.2593 -0.1268,16.9785 -0.1988,26.027 -0.1988,26.027 z"
   id="path78"
   style="fill:#ff0000" />
</g><path
       d="m 82.094599,171.4876 -0.831626,-1.92849 -0.907227,-1.85431 -1.020631,-1.74305 -2.268069,-3.44901 -1.134036,-1.70598 -1.285239,-1.66887 -1.134035,-1.6318 -1.247437,-1.66887 -1.134035,-1.59472 -1.134033,-1.63179 -0.982831,-1.5947 -0.98283,-1.63179 -0.869425,-1.6318 -0.756022,-1.6318 -0.604818,-1.66887 -0.529217,0.14834 -0.529217,0.22251 -0.529215,0.18544 -0.567018,0.18543 -0.529216,0.14834 -0.529215,0.22252 -0.529217,0.18544 -1.020631,0.37085 -0.529215,0.25961 -0.378013,0.14835 -0.491414,0.29668 -0.529215,0.14835 -0.453615,0.2596 -0.453612,0.18544 -0.378014,0.22251 0.302409,4.19074 0.415813,3.89406 0.869428,3.81988 1.02063,3.63445 1.209636,3.44901 1.512047,3.26359 1.512046,3.11524 1.663249,2.89273 1.814455,2.6702 1.890058,2.59604 1.965661,2.33643 2.00346,2.22518 1.965659,1.96557 2.079063,1.85431 2.003462,1.66888 2.00346,1.55762 0.567017,-1.70597 0.491414,-1.55762 0.453614,-1.55762 0.264608,-1.48345 0.189006,-1.40927 0.151206,-1.3722 v -3.81988 l -0.189007,-1.22384 -0.189005,-1.18676 -0.567018,-2.33643 -0.378012,-1.11259 -0.831624,-2.29934 m 23.020904,-40.01603 1.89005,0.2596 1.89006,0.29669 1.89006,0.37086 1.89006,0.37086 1.77665,0.37087 1.89005,0.48211 1.73886,0.48213 1.77665,0.55629 1.66326,0.5563 1.70104,0.59337 1.58765,0.55629 1.66326,0.63048 1.51204,0.66755 3.02409,1.48344 1.43644,0.8159 -0.0756,2.9669 -0.15119,2.85563 -0.30242,2.85564 -0.37801,2.7073 -0.37801,2.74438 -0.60482,2.59604 -0.60482,2.59603 -0.68042,2.48478 -0.75602,2.48478 -0.86943,2.37351 -0.90722,2.29935 -0.98283,2.22517 -1.02064,2.151 -1.13403,2.151 -1.05844,2.00265 -1.13403,2.00266 9.8283,11.05169 1.62545,-2.59603 1.51205,-2.59603 1.58765,-2.74438 1.39864,-2.81856 1.36084,-2.9669 1.32304,-2.9669 1.13404,-3.11523 1.13402,-3.18942 0.94503,-3.33776 0.86943,-3.33776 0.75602,-3.52319 0.68042,-3.63445 0.49142,-3.70862 0.37801,-3.81988 0.22681,-3.96823 0.0756,-3.96822 -2.26807,-1.48345 -2.38148,-1.55762 -2.53267,-1.37219 -2.57048,-1.26094 -2.64607,-1.26092 -2.8729,-1.11259 -2.87288,-1.03842 -3.02409,-0.96424 -3.0241,-0.85298 -3.09969,-0.74172 -3.17529,-0.74172 -3.21311,-0.66756 -3.28869,-0.55629 -3.3265,-0.44504 -3.40211,-0.37086 -3.326505,-0.2596 0.22681,0.48212 0.302405,0.48212 0.30241,0.51921 0.3024,0.48212 0.64263,1.00132 0.26462,0.51921 0.37801,0.48212 0.68042,1.00133 0.30241,0.48212 0.75602,1.00133 0.37801,0.44504 0.37801,0.44503 0.37801,0.51921 m -58.478374,8.60399 v 2.9669 l 0.151207,2.85564 0.26461,2.85564 0.378012,2.70729 0.453612,2.74438 0.529219,2.59604 0.604819,2.59604 0.680416,2.48477 0.831624,2.48478 0.831624,2.37352 0.869428,2.29935 0.982831,2.22517 1.05843,2.151 1.134038,2.151 1.134028,2.00265 1.209636,2.00266 -9.903898,11.05169 -1.701052,-2.59604 -1.51204,-2.59603 -1.58765,-2.74438 -1.398648,-2.81855 -1.360833,-2.9669 -1.285246,-2.9669 -1.134027,-3.11524 -1.134038,-3.18941 -0.982832,-3.33776 -0.869428,-3.33776 -0.756015,-3.52319 -0.604818,-3.63445 -0.491416,-3.70862 -0.378012,-3.81988 -0.378013,-3.96823 v -3.96823 l 1.701052,-1.18675 1.701052,-1.11259 1.890053,-1.11259 1.890064,-1.03841 1.890053,-0.96424 2.079065,-0.96425 2.079065,-0.85298 2.116859,-0.81589 2.192467,-0.74173 2.268066,-0.74172 2.268066,-0.74173 2.343675,-0.66755 2.343671,-0.59338 2.419275,-0.55629 2.457073,-0.51921 2.457075,-0.44504 -0.37801,1.00133 -0.113404,0.5563 -0.189005,0.5192 -0.151207,0.44504 -0.0756,0.51921 -0.151205,0.48212 -0.113402,0.48212 v 0.48211 l -0.226807,1.03842 -0.0756,0.44504 -0.0756,0.48211 -0.0756,0.89007 v 0.48213 l -1.323041,0.29669 -1.247437,0.29668 -1.209636,0.37087 -1.247439,0.37086 -1.209636,0.37086 -1.134024,0.37087 -1.209637,0.37086 -1.05844,0.44503 -1.134027,0.44503 -1.134038,0.44504 -1.05843,0.44503 -1.134038,0.48213 -0.982831,0.5192 -2.04126,0.96424 -0.945027,0.59339 m 42.866492,84.77909 -1.398642,-0.48212 -1.512045,-0.59338 -1.587649,-0.74172 -1.663249,-0.74173 -1.738854,-0.89007 -1.814455,-0.96424 -1.890057,-1.11259 -1.890058,-1.11258 -1.890057,-1.29803 -2.079062,-1.40927 -2.003462,-1.48344 -2.041262,-1.48346 -2.079063,-1.66887 -2.00346,-1.78014 -2.079063,-1.85431 -2.003461,-1.96557 9.752695,-10.94043 1.360842,1.26092 2.646079,2.37352 1.398642,1.11259 1.360843,1.11258 1.360842,0.92716 1.32304,0.96424 1.285238,0.92715 1.323042,0.85299 1.209636,0.74173 1.209635,0.74172 1.134035,0.74172 1.134035,0.5563 1.134033,0.5192 1.058433,0.55629 1.020631,0.44504 0.982829,-0.44504 1.134033,-0.55629 1.134035,-0.5192 1.134035,-0.59338 1.134033,-0.74173 1.209638,-0.66755 1.285234,-0.81589 1.24744,-0.85299 1.28524,-0.89007 1.285235,-0.92716 1.36085,-0.96424 1.32304,-1.11258 1.32304,-1.11259 2.72169,-2.37352 1.39863,-1.26092 9.75269,10.94043 -2.04126,1.92848 -2.07905,1.85431 -2.04127,1.74305 -2.07906,1.63179 -2.07906,1.59472 -2.00347,1.48344 -2.00345,1.33511 -1.96566,1.26093 -1.89007,1.11258 -1.890055,1.11259 -1.81445,0.96424 -1.701052,0.85299 -1.738853,0.74172 -1.587647,0.74172 -1.512046,0.63047 -1.398642,0.48212 m 15.007055,-53.29289 1.39864,-2.03975 1.28525,-2.00266 1.05842,-1.96557 0.94503,-1.85431 0.75603,-1.92847 0.64262,-1.85431 0.45361,-1.85431 0.37801,-1.78015 0.26461,-1.74305 0.11341,-1.70597 0.1134,-1.63179 v -1.55762 l -0.1134,-1.48345 -0.15121,-1.37219 -0.18901,-1.37219 -0.189,-1.22385 0.64262,0.14835 0.64261,0.18543 1.32304,0.37087 1.24744,0.48212 0.68043,0.14834 0.64261,0.22252 0.64262,0.22251 0.60482,0.25961 0.60482,0.18543 0.64261,0.22252 0.60482,0.37086 0.52922,0.22252 0.52922,0.29669 0.60482,0.2596 -0.45361,5.19207 -0.83164,4.96956 -1.20963,4.59869 -1.51204,4.33908 -1.81446,4.07949 -2.04126,3.70862 -2.19247,3.52319 -2.38147,3.18942 -2.45707,2.89271 -2.53268,2.67022 -2.57049,2.4106 -2.532675,2.11392 -2.494868,1.85431 -2.381472,1.63179 -2.26807,1.37219 -2.079063,1.11258 -0.264606,-0.0741 -0.30241,-0.14835 -0.264609,-0.14835 -0.302408,-0.14834 -0.264609,-0.11126 -0.264606,-0.22252 -0.26461,-0.14835 -0.378011,-0.18542 -0.226808,-0.18543 -0.37801,-0.18544 -0.226806,-0.18543 -0.302409,-0.18542 -0.26461,-0.18544 -0.378011,-0.22252 -0.264606,-0.18543 -0.302409,-0.22252 3.024089,-4.07948 2.26807,-4.07948 1.512046,-4.00532 0.907228,-3.85697 0.453612,-3.70862 -0.113404,-3.70862 -0.529215,-3.44901 -0.831624,-3.26359 -1.058434,-3.11524 -1.209636,-2.81855 -1.360841,-2.59604 -1.36084,-2.22517 -1.360843,-2.03975 -1.134033,-1.70596 -1.058433,-1.3351 -0.756022,-0.96424 -0.567019,-0.81591 -0.604818,-0.85298 -0.567016,-0.92716 -0.604819,-0.92715 -0.68042,-0.96424 -0.604819,-1.00132 -0.567016,-1.11259 -0.567019,-1.00133 -0.567017,-1.11259 -1.058431,-2.151 -0.378013,-1.11259 -0.491415,-1.11258 -0.378011,-1.11259 -0.378011,-1.11258 -0.226807,-1.03842 -0.378011,-1.85431 -0.264608,-1.85431 -0.151205,-1.96557 V 123.461 l 0.151205,-2.15099 0.264608,-2.15101 0.491414,-2.22517 0.64262,-2.29934 0.869426,-2.37353 1.134035,-2.37351 1.209638,-2.41061 1.512044,-2.48477 1.890057,-2.52186 2.041262,-2.484784 2.343673,-2.59604 2.72168,-2.52186 1.020631,0.37087 -1.285238,2.4106 -1.058431,2.22518 -0.869427,2.225164 -0.756023,2.07683 -0.64262,2.00266 -0.491415,1.85431 -0.302409,1.85431 -0.151204,1.74305 -0.113404,1.66888 0.0756,1.66888 0.113403,1.59471 0.30241,1.59471 0.302409,1.48345 0.453612,1.55762 0.453615,1.55762 0.567016,1.55761 0.680421,1.66889 0.907227,1.85431 1.058434,1.78014 1.134033,1.92848 1.32304,1.96557 1.360843,2.00266 1.398642,2.00265 1.398643,2.11392 1.398642,2.03974 1.360834,2.07683 1.24744,2.11391 1.247435,2.11391 1.05843,2.07683 0.94503,2.11392 0.75603,2.07682 0.60482,2.00266 0.1134,0.74173 0.1134,0.85298 0.30242,1.74305 v 0.89007 l 0.1134,0.85298 v 3.7828 l -0.1134,1.00133 -0.15121,0.92715 -0.15121,1.00133 -0.0378,1.03842 -0.37801,2.03973 z"
       fill="#c9af53"
       id="path271"
       style="stroke-width:3.74419" /></g></svg>
